<?xml version="1.0" standalone="no"?>
<!DOCTYPE svg PUBLIC "-//W3C//DTD SVG 20010904//EN"
 "http://www.w3.org/TR/2001/REC-SVG-20010904/DTD/svg10.dtd">
<svg version="1.0" xmlns="http://www.w3.org/2000/svg"
 width="507.000000pt" height="512.000000pt" viewBox="0 0 507.000000 512.000000"
 preserveAspectRatio="xMidYMid meet">
<metadata>
Created by potrace 1.16, written by Peter Selinger 2001-2019
</metadata>
<g transform="translate(0.000000,512.000000) scale(0.100000,-0.100000)"
fill="#000000" stroke="none">
<path d="M0 2560 l0 -2560 2535 0 2535 0 0 2560 0 2560 -2535 0 -2535 0 0
-2560z m4075 2423 c262 -70 495 -228 658 -444 69 -92 160 -272 186 -370 52
-188 51 -168 51 -1594 0 -858 -4 -1361 -10 -1415 -44 -358 -204 -642 -465
-828 -171 -121 -357 -195 -561 -222 -65 -8 -454 -10 -1449 -8 l-1360 3 -119
32 c-285 77 -504 220 -668 435 -69 91 -158 270 -188 378 -51 184 -50 160 -50
1592 0 887 4 1363 11 1415 24 183 77 335 171 492 111 186 281 342 478 441 132
66 222 93 410 123 14 3 646 4 1405 3 l1380 -1 120 -32z M4155 3700 c-7 -12 2
-12 30 0 19 8 19 9 -2 9 -12 1 -25 -3 -28 -9z M1744 3635 c-109 -24 -219 -87
-310 -180 -89 -89 -138 -174 -170 -295 -21 -81 -21 -309 1 -412 22 -108 83
-224 157 -300 71 -73 128 -109 226 -144 62 -22 82 -24 263 -24 108 0 211 -3
228 -6 l31 -6 0 -377 c0 -427 1 -437 77 -521 62 -69 143 -103 258 -108 103 -5
180 11 250 52 52 31 84 70 122 151 l28 60 5 330 c6 370 5 367 81 406 33 16 60
19 196 19 148 0 163 2 240 29 105 36 169 78 240 155 60 66 121 182 144 276 21
84 18 338 -5 419 -55 200 -178 352 -348 431 -132 61 -112 60 -918 59 -570 0
-749 -4 -796 -14z m1494 -408 c55 -30 112 -88 140 -141 24 -45 27 -62 27 -146
0 -86 -3 -100 -27 -141 -31 -53 -72 -90 -132 -121 -41 -21 -48 -21 -707 -20
-738 1 -700 -3 -779 68 -66 60 -94 124 -95 215 0 67 4 84 35 145 37 72 101
131 164 152 20 7 258 10 686 9 611 -2 657 -3 688 -20z M2110 3050 c-26 -26
-33 -59 -28 -127 6 -64 30 -93 80 -93 63 0 105 93 78 174 -21 63 -89 87 -130
46z M2861 3051 c-43 -43 -40 -161 4 -198 34 -30 67 -29 102 1 24 21 28 31 28
78 0 64 -10 101 -31 122 -22 22 -80 20 -103 -3z M3921 3414 c0 -11 3 -14 6 -6
3 7 2 16 -1 19 -3 4 -6 -2 -5 -13z"/>
</g>
</svg>
