<?xml version="1.0" standalone="no"?>
<!DOCTYPE svg PUBLIC "-//W3C//DTD SVG 20010904//EN"
 "http://www.w3.org/TR/2001/REC-SVG-20010904/DTD/svg10.dtd">
<svg version="1.0" xmlns="http://www.w3.org/2000/svg"
 width="552.000000pt" height="557.000000pt" viewBox="0 0 552.000000 557.000000"
 preserveAspectRatio="xMidYMid meet">
<metadata>
Created by potrace 1.16, written by Peter Selinger 2001-2019
</metadata>
<g transform="translate(0.000000,557.000000) scale(0.100000,-0.100000)"
fill="#000000" stroke="none">
<path d="M0 2785 l0 -2785 2760 0 2760 0 0 2785 0 2785 -2760 0 -2760 0 0
-2785z m4395 2648 c263 -71 460 -181 634 -353 171 -170 286 -379 349 -630 l26
-105 3 -1505 c3 -1310 2 -1519 -12 -1616 -76 -553 -438 -948 -995 -1087 -84
-21 -94 -21 -1599 -24 -1671 -4 -1574 -7 -1781 59 -207 66 -369 161 -515 300
-197 188 -328 436 -375 715 -18 106 -19 186 -21 1580 -2 1313 -1 1479 14 1569
70 433 332 796 712 987 125 62 286 111 430 130 17 2 710 4 1540 3 l1510 -2 80
-21z M4540 4030 c0 -5 7 -7 15 -4 8 4 15 8 15 10 0 2 -7 4 -15 4 -8 0 -15 -4
-15 -10z M1905 3955 c-266 -58 -484 -279 -536 -545 -16 -83 -7 -378 15 -455
52 -187 170 -336 328 -416 103 -52 151 -59 394 -59 122 0 229 -3 238 -6 14 -5
16 -51 16 -415 0 -467 1 -473 86 -568 68 -75 150 -112 263 -119 220 -12 365
67 432 235 22 56 24 73 29 413 4 259 8 361 18 377 7 12 29 35 49 50 36 28 37
28 237 34 219 6 266 16 382 84 85 50 186 161 233 256 64 131 75 188 75 379 0
194 -14 262 -76 390 -34 69 -60 103 -133 176 -103 103 -186 152 -311 184 -74
19 -112 20 -878 19 -624 0 -814 -4 -861 -14z m1435 -428 c175 -3 200 -10 276
-84 63 -62 88 -122 92 -229 5 -116 -16 -172 -95 -244 -92 -84 -57 -81 -874
-78 l-714 3 -43 23 c-57 31 -112 87 -142 147 -21 42 -25 64 -25 135 0 71 4 94
26 140 53 113 134 176 241 188 57 6 863 6 1258 -1z M2295 3316 c-47 -47 -47
-173 0 -213 60 -52 136 -17 149 70 19 124 -77 215 -149 143z M3127 3329 c-61
-36 -60 -205 1 -238 44 -23 114 0 128 41 20 61 -2 180 -36 198 -24 13 -70 12
-93 -1z"/>
</g>
</svg>
